<?xml version="1.0" encoding="utf-8"?>
<!-- Generator: Adobe Illustrator 24.0.0, SVG Export Plug-In . SVG Version: 6.00 Build 0)  -->
<svg version="1.1" id="Laag_1" xmlns="http://www.w3.org/2000/svg" xmlns:xlink="http://www.w3.org/1999/xlink" x="0px" y="0px"
	 viewBox="0 0 751.8 373.4" style="enable-background:new 0 0 751.8 373.4;" xml:space="preserve">
<style type="text/css">
	.st0{clip-path:url(#SVGID_2_);fill:url(#SVGID_3_);}
	.st1{fill:#1D1D1B;}
</style>
<g>
	<defs>
		<path id="SVGID_1_" d="M57.9,162.3c-0.3,0-0.5,0-0.8-0.1c-2.6-0.4-4.3-2.9-3.9-5.4l2.4-14.5c0.4-2.6,2.9-4.3,5.4-3.9
			c2.6,0.4,4.3,2.9,3.9,5.4l-2.4,14.5C62.2,160.7,60.2,162.3,57.9,162.3z M62.6,188.9v-14.5c0-2.6-2.1-4.7-4.7-4.7s-4.7,2.1-4.7,4.7
			v14.5c0,2.6,2.1,4.7,4.7,4.7S62.6,191.5,62.6,188.9z M66.6,223.6c2.5-0.9,3.7-3.6,2.8-6.1l-4.9-13.3c-0.9-2.5-3.6-3.7-6.1-2.8
			c-2.5,0.9-3.7,3.6-2.8,6.1l4.9,13.3c0.7,1.9,2.5,3.1,4.5,3.1C65.5,223.9,66,223.8,66.6,223.6z M82.8,250.6
			c2.2-1.5,2.8-4.4,1.3-6.6l-8-12c-1.5-2.2-4.4-2.8-6.6-1.3c-2.2,1.5-2.8,4.4-1.3,6.6l8,12c0.9,1.4,2.4,2.1,3.9,2.1
			C81.1,251.4,82,251.2,82.8,250.6z M102.4,101l5.6-10c1.3-2.3,0.5-5.1-1.8-6.4c-2.3-1.3-5.1-0.4-6.4,1.8l-5.6,10
			c-1.3,2.3-0.5,5.1,1.8,6.4c0.7,0.4,1.5,0.6,2.3,0.6C100,103.4,101.6,102.5,102.4,101z M94.9,129l3.9-11.8c0.8-2.4-0.5-5.1-3-5.9
			c-2.4-0.8-5.1,0.5-5.9,3L86,126.1c-0.8,2.4,0.5,5.1,3,5.9c0.5,0.2,1,0.2,1.5,0.2C92.4,132.2,94.2,130.9,94.9,129z M92.7,157.9
			l2.1-12.7c0.4-2.5-1.3-4.9-3.9-5.4c-2.5-0.4-4.9,1.3-5.4,3.9l-2.1,12.7c-0.4,2.5,1.3,4.9,3.9,5.4c0.3,0,0.5,0.1,0.8,0.1
			C90.3,161.9,92.3,160.2,92.7,157.9z M92.7,188.1v-12.6c0-2.6-2.1-4.7-4.7-4.7c-2.6,0-4.7,2.1-4.7,4.7v12.6c0,2.6,2.1,4.7,4.7,4.7
			C90.6,192.7,92.7,190.6,92.7,188.1z M95.8,222.4c2.4-0.9,3.7-3.6,2.8-6l-4.3-11.6c-0.9-2.4-3.6-3.7-6-2.8c-2.4,0.9-3.7,3.6-2.8,6
			l4.3,11.6c0.7,1.9,2.5,3.1,4.4,3.1C94.8,222.6,95.3,222.5,95.8,222.4z M110.2,249.5c2.1-1.4,2.7-4.3,1.3-6.5l-7-10.5
			c-1.4-2.1-4.3-2.7-6.5-1.3c-2.1,1.4-2.7,4.3-1.3,6.5l7,10.5c0.9,1.3,2.4,2.1,3.9,2.1C108.5,250.2,109.4,250,110.2,249.5z
			 M106.7,275.9c1.9-1.8,2-4.7,0.2-6.6l-8.3-8.9c-1.8-1.9-4.7-2-6.6-0.2c-1.9,1.8-2,4.7-0.2,6.6l8.3,8.9c0.9,1,2.2,1.5,3.4,1.5
			C104.7,277.1,105.8,276.7,106.7,275.9z M130.7,100.9l4.8-8.6c1.2-2.2,0.4-5-1.8-6.3c-2.2-1.2-5-0.4-6.3,1.8l-4.8,8.6
			c-1.2,2.2-0.4,5,1.8,6.3c0.7,0.4,1.5,0.6,2.2,0.6C128.3,103.3,129.9,102.4,130.7,100.9z M124.3,128.8l3.3-10.1
			c0.8-2.4-0.5-5-2.9-5.8c-2.4-0.8-5,0.5-5.8,2.9l-3.3,10.1c-0.8,2.4,0.5,5,2.9,5.8c0.5,0.2,1,0.2,1.4,0.2
			C121.9,132,123.7,130.7,124.3,128.8z M122.7,157.5l1.8-10.9c0.4-2.5-1.3-4.9-3.8-5.3c-2.5-0.4-4.9,1.3-5.3,3.8l-1.8,10.9
			c-0.4,2.5,1.3,4.9,3.8,5.3c0.3,0,0.5,0.1,0.7,0.1C120.3,161.4,122.3,159.8,122.7,157.5z M122.7,187.2v-10.8c0-2.5-2.1-4.6-4.6-4.6
			s-4.6,2.1-4.6,4.6v10.8c0,2.5,2.1,4.6,4.6,4.6S122.7,189.7,122.7,187.2z M125,221.1c2.4-0.9,3.6-3.5,2.7-5.9l-3.6-10
			c-0.9-2.4-3.5-3.6-5.9-2.7c-2.4,0.9-3.6,3.5-2.7,5.9l3.6,10c0.7,1.9,2.4,3,4.3,3C123.9,221.4,124.4,221.3,125,221.1z M137.4,248.3
			c2.1-1.4,2.7-4.3,1.3-6.4l-6-9c-1.4-2.1-4.3-2.7-6.4-1.3c-2.1,1.4-2.7,4.3-1.3,6.4l6,9c0.9,1.3,2.3,2,3.8,2
			C135.7,249.1,136.6,248.8,137.4,248.3z M134.5,274.8c1.9-1.7,1.9-4.7,0.2-6.5l-7.1-7.6c-1.7-1.9-4.7-1.9-6.5-0.2
			c-1.9,1.7-1.9,4.7-0.2,6.5l7.1,7.6c0.9,1,2.1,1.5,3.4,1.5C132.5,276.1,133.6,275.7,134.5,274.8z M160.7,76.3l5.5-7.6
			c1.5-2,1-4.9-1-6.3c-2-1.5-4.9-1-6.3,1l-5.5,7.6c-1.5,2-1,4.9,1,6.3c0.8,0.6,1.7,0.9,2.7,0.9C158.4,78.2,159.8,77.5,160.7,76.3z
			 M159.1,100.9l4-7.1c1.2-2.2,0.4-4.9-1.7-6.2c-2.2-1.2-4.9-0.4-6.2,1.7l-4,7.1c-1.2,2.2-0.4,4.9,1.7,6.2c0.7,0.4,1.5,0.6,2.2,0.6
			C156.7,103.2,158.2,102.4,159.1,100.9z M153.8,128.6l2.8-8.5c0.8-2.4-0.5-4.9-2.9-5.7c-2.4-0.8-4.9,0.5-5.7,2.9l-2.8,8.5
			c-0.8,2.4,0.5,4.9,2.9,5.7c0.5,0.2,1,0.2,1.4,0.2C151.4,131.7,153.2,130.5,153.8,128.6z M152.7,157.1l1.5-9.1
			c0.4-2.5-1.3-4.8-3.7-5.2c-2.5-0.4-4.8,1.3-5.2,3.7l-1.5,9.1c-0.4,2.5,1.3,4.8,3.7,5.2c0.2,0,0.5,0.1,0.7,0.1
			C150.4,160.9,152.3,159.3,152.7,157.1z M152.7,186.3v-9c0-2.5-2-4.5-4.5-4.5c-2.5,0-4.5,2-4.5,4.5v9c0,2.5,2,4.5,4.5,4.5
			C150.7,190.9,152.7,188.9,152.7,186.3z M154.1,219.9c2.4-0.9,3.6-3.5,2.7-5.8l-3-8.3c-0.9-2.4-3.5-3.6-5.8-2.7
			c-2.4,0.9-3.6,3.5-2.7,5.8l3,8.3c0.7,1.8,2.4,3,4.3,3C153.1,220.2,153.6,220.1,154.1,219.9z M164.7,247.1c2.1-1.4,2.6-4.2,1.2-6.3
			l-5-7.5c-1.4-2.1-4.2-2.6-6.3-1.2c-2.1,1.4-2.6,4.2-1.2,6.3l5,7.5c0.9,1.3,2.3,2,3.8,2C163,247.9,163.9,247.6,164.7,247.1z
			 M162.3,273.8c1.8-1.7,1.9-4.6,0.2-6.4l-5.9-6.3c-1.7-1.8-4.6-1.9-6.4-0.2c-1.8,1.7-1.9,4.6-0.2,6.4l5.9,6.3
			c0.9,1,2.1,1.4,3.3,1.4C160.3,275,161.4,274.6,162.3,273.8z M162.3,298.6c1.6-2,1.3-4.8-0.7-6.4l-7.7-6.2c-2-1.6-4.8-1.3-6.4,0.7
			c-1.6,2-1.3,4.8,0.7,6.4l7.7,6.2c0.8,0.7,1.8,1,2.8,1C160.1,300.3,161.4,299.7,162.3,298.6z M189.1,75.7l4.4-6.1
			c1.4-2,1-4.8-1-6.2c-2-1.4-4.8-1-6.2,1l-4.4,6.1c-1.4,2-1,4.8,1,6.2c0.8,0.6,1.7,0.8,2.6,0.8C186.9,77.5,188.3,76.9,189.1,75.7z
			 M187.4,100.8l3.2-5.7c1.2-2.2,0.4-4.9-1.7-6.1c-2.2-1.2-4.9-0.4-6.1,1.7l-3.2,5.7c-1.2,2.2-0.4,4.9,1.7,6.1
			c0.7,0.4,1.4,0.6,2.2,0.6C185.1,103.1,186.6,102.3,187.4,100.8z M183.3,128.4l2.2-6.8c0.8-2.3-0.5-4.9-2.8-5.6
			c-2.3-0.8-4.9,0.5-5.6,2.8l-2.2,6.8c-0.8,2.3,0.5,4.9,2.8,5.6c0.5,0.2,0.9,0.2,1.4,0.2C180.9,131.5,182.7,130.3,183.3,128.4z
			 M182.7,156.6l1.2-7.3c0.4-2.4-1.3-4.7-3.7-5.1c-2.4-0.4-4.7,1.3-5.1,3.7l-1.2,7.3c-0.4,2.4,1.3,4.7,3.7,5.1
			c0.2,0,0.5,0.1,0.7,0.1C180.4,160.4,182.3,158.8,182.7,156.6z M182.7,185.5v-7.2c0-2.5-2-4.5-4.5-4.5s-4.5,2-4.5,4.5v7.2
			c0,2.5,2,4.5,4.5,4.5S182.7,188,182.7,185.5z M183.3,218.7c2.3-0.8,3.5-3.4,2.7-5.7l-2.4-6.6c-0.8-2.3-3.4-3.5-5.7-2.7
			c-2.3,0.8-3.5,3.4-2.7,5.7l2.4,6.6c0.7,1.8,2.4,2.9,4.2,2.9C182.3,219,182.8,218.9,183.3,218.7z M191.9,245.9
			c2.1-1.4,2.6-4.1,1.2-6.2l-4-6c-1.4-2-4.1-2.6-6.2-1.2c-2.1,1.4-2.6,4.1-1.2,6.2l4,6c0.9,1.3,2.3,2,3.7,2
			C190.3,246.7,191.2,246.4,191.9,245.9z M190.1,272.7c1.8-1.7,1.9-4.5,0.2-6.3l-4.8-5.1c-1.7-1.8-4.5-1.9-6.3-0.2
			c-1.8,1.7-1.9,4.5-0.2,6.3l4.8,5.1c0.9,0.9,2.1,1.4,3.3,1.4C188.2,274,189.3,273.6,190.1,272.7z M190.2,298.1
			c1.5-1.9,1.2-4.7-0.7-6.3l-6.1-4.9c-1.9-1.5-4.7-1.2-6.3,0.7c-1.5,1.9-1.2,4.7,0.7,6.3l6.1,4.9c0.8,0.7,1.8,1,2.8,1
			C188,299.7,189.3,299.2,190.2,298.1z M217.6,75.1l3.3-4.6c1.4-2,1-4.7-1-6.1c-2-1.4-4.7-1-6.1,1l-3.3,4.6c-1.4,2-1,4.7,1,6.1
			c0.8,0.6,1.7,0.8,2.6,0.8C215.4,76.9,216.8,76.3,217.6,75.1z M215.7,100.8l2.4-4.3c1.2-2.1,0.4-4.8-1.7-6c-2.1-1.2-4.8-0.4-6,1.7
			l-2.4,4.3c-1.2,2.1-0.4,4.8,1.7,6c0.7,0.4,1.4,0.6,2.1,0.6C213.4,103,214.9,102.2,215.7,100.8z M212.8,128.3l1.7-5.1
			c0.8-2.3-0.5-4.8-2.8-5.6c-2.3-0.8-4.8,0.5-5.6,2.8l-1.7,5.1c-0.8,2.3,0.5,4.8,2.8,5.6c0.5,0.2,0.9,0.2,1.4,0.2
			C210.5,131.3,212.2,130.1,212.8,128.3z M212.7,156.2l0.9-5.5c0.4-2.4-1.2-4.7-3.6-5c-2.4-0.4-4.7,1.2-5,3.6l-0.9,5.5
			c-0.4,2.4,1.2,4.7,3.6,5c0.2,0,0.5,0.1,0.7,0.1C210.4,159.9,212.3,158.4,212.7,156.2z M212.7,184.6v-5.4c0-2.4-2-4.4-4.4-4.4
			s-4.4,2-4.4,4.4v5.4c0,2.4,2,4.4,4.4,4.4S212.7,187.1,212.7,184.6z M212.4,217.5c2.3-0.8,3.5-3.4,2.6-5.6l-1.8-5
			c-0.8-2.3-3.4-3.5-5.6-2.6c-2.3,0.8-3.5,3.4-2.6,5.6l1.8,5c0.7,1.8,2.3,2.9,4.1,2.9C211.4,217.7,211.9,217.7,212.4,217.5z
			 M219.2,244.7c2-1.4,2.6-4.1,1.2-6.1l-3-4.5c-1.4-2-4.1-2.6-6.1-1.2c-2,1.4-2.6,4.1-1.2,6.1l3,4.5c0.8,1.3,2.2,2,3.7,2
			C217.6,245.5,218.4,245.2,219.2,244.7z M217.9,271.7c1.8-1.7,1.9-4.4,0.2-6.2l-3.6-3.8c-1.7-1.8-4.4-1.9-6.2-0.2
			c-1.8,1.7-1.9,4.4-0.2,6.2l3.6,3.8c0.9,0.9,2,1.4,3.2,1.4C216,272.9,217.1,272.5,217.9,271.7z M218.2,297.5
			c1.5-1.9,1.2-4.7-0.7-6.2l-4.6-3.7c-1.9-1.5-4.7-1.2-6.2,0.7c-1.5,1.9-1.2,4.7,0.7,6.2l4.6,3.7c0.8,0.7,1.8,1,2.8,1
			C216,299.2,217.3,298.6,218.2,297.5z M244.2,100.7l1.6-2.9c1.2-2.1,0.4-4.7-1.7-5.9c-2.1-1.2-4.7-0.4-5.9,1.7l-1.6,2.9
			c-1.2,2.1-0.4,4.7,1.7,5.9c0.7,0.4,1.4,0.6,2.1,0.6C241.9,102.9,243.4,102.1,244.2,100.7z M242.4,128.1l1.1-3.4
			c0.7-2.3-0.5-4.7-2.8-5.5c-2.3-0.7-4.7,0.5-5.5,2.8l-1.1,3.4c-0.7,2.3,0.5,4.7,2.8,5.5c0.5,0.1,0.9,0.2,1.4,0.2
			C240.1,131.1,241.8,129.9,242.4,128.1z M242.8,155.8l0.6-3.6c0.4-2.4-1.2-4.6-3.6-5c-2.4-0.4-4.6,1.2-5,3.6l-0.6,3.6
			c-0.4,2.4,1.2,4.6,3.6,5c0.2,0,0.5,0.1,0.7,0.1C240.6,159.4,242.4,157.9,242.8,155.8z M242.8,183.8v-3.6c0-2.4-1.9-4.3-4.3-4.3
			s-4.3,1.9-4.3,4.3v3.6c0,2.4,1.9,4.3,4.3,4.3S242.8,186.2,242.8,183.8z M241.7,216.3c2.2-0.8,3.4-3.3,2.6-5.6l-1.2-3.3
			c-0.8-2.2-3.3-3.4-5.6-2.6c-2.2,0.8-3.4,3.3-2.6,5.6l1.2,3.3c0.6,1.8,2.3,2.8,4.1,2.8C240.7,216.5,241.2,216.4,241.7,216.3z
			 M246.5,243.5c2-1.3,2.5-4,1.2-6l-2-3c-1.3-2-4-2.5-6-1.2c-2,1.3-2.5,4-1.2,6l2,3c0.8,1.2,2.2,1.9,3.6,1.9
			C245,244.3,245.8,244,246.5,243.5z M245.9,270.7c1.7-1.6,1.8-4.4,0.2-6.1l-2.4-2.5c-1.6-1.7-4.4-1.8-6.1-0.2
			c-1.7,1.6-1.8,4.4-0.2,6.1l2.4,2.5c0.9,0.9,2,1.4,3.2,1.4C244,271.8,245,271.4,245.9,270.7z M246.2,297c1.5-1.9,1.2-4.6-0.7-6.1
			l-3.1-2.5c-1.9-1.5-4.6-1.2-6.1,0.7c-1.5,1.9-1.2,4.6,0.7,6.1l3.1,2.5c0.8,0.6,1.8,1,2.7,1C244.1,298.6,245.4,298.1,246.2,297z
			 M272.8,100.7l0.8-1.4c1.1-2.1,0.4-4.6-1.6-5.8c-2.1-1.1-4.6-0.4-5.8,1.6l-0.8,1.4c-1.1,2.1-0.4,4.6,1.6,5.8
			c0.7,0.4,1.4,0.5,2.1,0.5C270.5,102.9,272,102.1,272.8,100.7z M272.2,127.9l0.6-1.7c0.7-2.2-0.5-4.6-2.7-5.4
			c-2.2-0.7-4.6,0.5-5.4,2.7l-0.6,1.7c-0.7,2.2,0.5,4.6,2.7,5.4c0.4,0.1,0.9,0.2,1.3,0.2C269.9,130.8,271.6,129.7,272.2,127.9z
			 M273,155.3l0.3-1.8c0.4-2.3-1.2-4.5-3.5-4.9c-2.3-0.4-4.5,1.2-4.9,3.5l-0.3,1.8c-0.4,2.3,1.2,4.5,3.5,4.9c0.2,0,0.5,0.1,0.7,0.1
			C270.9,158.9,272.7,157.4,273,155.3z M273.1,182.9v-1.8c0-2.4-1.9-4.3-4.3-4.3c-2.4,0-4.3,1.9-4.3,4.3v1.8c0,2.4,1.9,4.3,4.3,4.3
			C271.2,187.2,273.1,185.3,273.1,182.9z M271.1,215c2.2-0.8,3.3-3.3,2.5-5.5l-0.6-1.7c-0.8-2.2-3.3-3.3-5.5-2.5
			c-2.2,0.8-3.3,3.3-2.5,5.5l0.6,1.7c0.6,1.7,2.3,2.8,4,2.8C270.1,215.3,270.6,215.2,271.1,215z M274,242.4c2-1.3,2.5-4,1.2-5.9
			l-1-1.5c-1.3-2-4-2.5-5.9-1.2c-2,1.3-2.5,4-1.2,5.9l1,1.5c0.8,1.2,2.2,1.9,3.5,1.9C272.5,243.1,273.3,242.9,274,242.4z
			 M273.9,269.6c1.7-1.6,1.8-4.3,0.2-6l-1.2-1.3c-1.6-1.7-4.3-1.8-6-0.2c-1.7,1.6-1.8,4.3-0.2,6l1.2,1.3c0.8,0.9,2,1.3,3.1,1.3
			C272.1,270.8,273.1,270.4,273.9,269.6z M274.4,296.5c1.5-1.8,1.2-4.5-0.7-6l-1.5-1.2c-1.8-1.5-4.5-1.2-6,0.7
			c-1.5,1.8-1.2,4.5,0.7,6l1.5,1.2c0.8,0.6,1.7,0.9,2.7,0.9C272.4,298.1,273.6,297.5,274.4,296.5z M302.3,157.2
			c0.8-0.8,1.2-1.8,1.2-3c0-0.3,0-0.6-0.1-0.8c-0.1-0.3-0.1-0.5-0.2-0.8c-0.1-0.3-0.2-0.5-0.4-0.7c-0.2-0.2-0.3-0.4-0.5-0.6
			c-0.8-0.8-1.9-1.2-3-1.2c-1.1,0-2.2,0.4-3,1.2c-0.2,0.2-0.4,0.4-0.5,0.6c-0.2,0.2-0.3,0.5-0.4,0.7c-0.1,0.3-0.2,0.5-0.2,0.8
			c-0.1,0.3-0.1,0.5-0.1,0.8c0,1.1,0.4,2.2,1.2,3c0.8,0.8,1.9,1.2,3,1.2S301.5,158,302.3,157.2z M302.3,185c0.2-0.2,0.4-0.4,0.5-0.6
			c0.1-0.2,0.3-0.5,0.4-0.7c0.1-0.3,0.2-0.5,0.2-0.8c0.1-0.3,0.1-0.5,0.1-0.8c0-1.1-0.4-2.2-1.2-3c-0.8-0.8-1.9-1.2-3-1.2
			s-2.2,0.4-3,1.2c-0.8,0.8-1.2,1.9-1.2,3c0,0.3,0,0.6,0.1,0.8c0.1,0.3,0.1,0.5,0.2,0.8c0.1,0.2,0.2,0.5,0.4,0.7
			c0.2,0.2,0.3,0.4,0.5,0.6c0.2,0.2,0.4,0.4,0.6,0.5c0.2,0.2,0.5,0.3,0.7,0.4c0.2,0.1,0.5,0.2,0.8,0.2c0.3,0,0.5,0.1,0.8,0.1
			C300.4,186.2,301.5,185.8,302.3,185z M302.2,212.8c0.2-0.2,0.4-0.4,0.5-0.6c0.2-0.2,0.3-0.5,0.4-0.7c0.1-0.3,0.2-0.5,0.2-0.8
			c0.1-0.3,0.1-0.5,0.1-0.8c0-1.1-0.4-2.2-1.2-3c-1-1-2.4-1.4-3.8-1.1c-0.3,0.1-0.5,0.1-0.8,0.2c-0.3,0.1-0.5,0.2-0.7,0.4
			c-0.2,0.2-0.4,0.3-0.6,0.5c-0.2,0.2-0.4,0.4-0.5,0.6c-0.2,0.2-0.3,0.5-0.4,0.7c-0.1,0.3-0.2,0.5-0.2,0.8c-0.1,0.3-0.1,0.5-0.1,0.8
			c0,0.3,0,0.5,0.1,0.8c0,0.3,0.1,0.5,0.2,0.8c0.1,0.2,0.2,0.5,0.4,0.7c0.1,0.2,0.3,0.4,0.5,0.6c0.2,0.2,0.4,0.4,0.6,0.5
			c0.2,0.1,0.5,0.3,0.7,0.4c0.2,0.1,0.5,0.2,0.8,0.2c0.3,0.1,0.5,0.1,0.8,0.1C300.3,214.1,301.4,213.6,302.2,212.8z M302.3,240.7
			c0.2-0.2,0.4-0.4,0.5-0.6c0.2-0.2,0.3-0.5,0.4-0.7c0.1-0.2,0.2-0.5,0.2-0.8c0-0.3,0.1-0.5,0.1-0.8c0-0.3,0-0.5-0.1-0.8
			c0-0.3-0.1-0.5-0.2-0.8c-0.1-0.2-0.2-0.5-0.4-0.7c-0.2-0.2-0.3-0.4-0.5-0.6c-0.2-0.2-0.4-0.4-0.6-0.5c-0.2-0.2-0.5-0.3-0.7-0.4
			c-0.3-0.1-0.5-0.2-0.8-0.2c-1.4-0.3-2.8,0.2-3.8,1.1c-0.2,0.2-0.4,0.4-0.5,0.6c-0.2,0.2-0.3,0.5-0.4,0.7c-0.1,0.3-0.2,0.5-0.2,0.8
			c0,0.3-0.1,0.5-0.1,0.8c0,0.3,0,0.6,0.1,0.8c0.1,0.3,0.1,0.5,0.2,0.8c0.1,0.3,0.2,0.5,0.4,0.7c0.2,0.2,0.3,0.4,0.5,0.6
			c0.2,0.2,0.4,0.4,0.6,0.5c0.2,0.2,0.5,0.3,0.7,0.4c0.3,0.1,0.5,0.2,0.8,0.2c0.3,0,0.5,0.1,0.8,0.1
			C300.5,241.9,301.5,241.5,302.3,240.7z M300.1,269.6c0.3-0.1,0.5-0.1,0.8-0.2c0.2-0.1,0.5-0.2,0.7-0.4c0.2-0.1,0.4-0.3,0.6-0.5
			c0.2-0.2,0.4-0.4,0.5-0.6c0.1-0.2,0.3-0.5,0.4-0.7c0.1-0.2,0.2-0.5,0.2-0.8c0.1-0.3,0.1-0.5,0.1-0.8c0-0.3,0-0.6-0.1-0.8
			s-0.1-0.5-0.2-0.8c-0.1-0.3-0.2-0.5-0.4-0.7c-0.1-0.2-0.3-0.4-0.5-0.6c-0.2-0.2-0.4-0.4-0.6-0.5c-0.2-0.1-0.5-0.3-0.7-0.4
			c-0.2-0.1-0.5-0.2-0.8-0.2c-1.4-0.3-2.8,0.2-3.8,1.1c-0.2,0.2-0.4,0.4-0.5,0.6c-0.1,0.2-0.3,0.5-0.4,0.7c-0.1,0.2-0.2,0.5-0.2,0.8
			c-0.1,0.3-0.1,0.5-0.1,0.8c0,0.3,0,0.5,0.1,0.8c0.1,0.3,0.1,0.5,0.2,0.8c0.1,0.3,0.2,0.5,0.4,0.7c0.1,0.2,0.3,0.4,0.5,0.6
			c0.2,0.2,0.4,0.4,0.6,0.5c0.2,0.2,0.5,0.3,0.7,0.4c0.2,0.1,0.5,0.2,0.8,0.2s0.5,0.1,0.8,0.1C299.5,269.7,299.8,269.7,300.1,269.6z
			 M300.3,297.5c0.3-0.1,0.5-0.1,0.8-0.2c0.3-0.1,0.5-0.2,0.7-0.4c0.2-0.2,0.4-0.3,0.6-0.5c0.8-0.8,1.2-1.8,1.2-3
			c0-0.3,0-0.5-0.1-0.8c-0.1-0.3-0.1-0.5-0.2-0.8c-0.1-0.2-0.2-0.5-0.4-0.7c-0.2-0.2-0.3-0.4-0.5-0.6c-0.2-0.2-0.4-0.4-0.6-0.5
			c-0.2-0.2-0.5-0.3-0.7-0.4c-0.3-0.1-0.5-0.2-0.8-0.2c-0.5-0.1-1.1-0.1-1.6,0c-0.3,0-0.5,0.1-0.8,0.2c-0.2,0.1-0.5,0.2-0.7,0.4
			c-0.2,0.1-0.4,0.3-0.6,0.5c-0.2,0.2-0.4,0.4-0.5,0.6c-0.2,0.2-0.3,0.5-0.4,0.7c-0.1,0.3-0.2,0.5-0.2,0.8c-0.1,0.3-0.1,0.5-0.1,0.8
			c0,1.1,0.4,2.2,1.2,3c0.8,0.8,1.9,1.2,3,1.2C299.8,297.5,300,297.5,300.3,297.5z M328.1,290c-2.3,0-4.1,1.8-4.1,4.1
			s1.8,4.1,4.1,4.1s4.1-1.8,4.1-4.1S330.3,290,328.1,290z M327.7,261.7c-2.3,0-4.1,1.8-4.1,4.1s1.8,4.1,4.1,4.1s4.1-1.8,4.1-4.1
			S330,261.7,327.7,261.7z"/>
	</defs>
	<clipPath id="SVGID_2_">
		<use xlink:href="#SVGID_1_"  style="overflow:visible;"/>
	</clipPath>
	<linearGradient id="SVGID_3_" gradientUnits="userSpaceOnUse" x1="280.3597" y1="246.7648" x2="89.7136" y2="104.8138">
		<stop  offset="0" style="stop-color:#009EE2"/>
		<stop  offset="1" style="stop-color:#000E1F"/>
	</linearGradient>
	<rect x="50.9" y="59" class="st0" width="283.2" height="244.6"/>
</g>
<g>
	<path class="st1" d="M498.8,165.1v47.1h-9.4l-1.7-5.3h-1.2c-1.9,2.4-6,5.8-13.8,5.8c-12.5,0-19-8.9-19-22.1v-25.6h12.8v22.7
		c0,5.8,0.5,14,8.6,14c4.1,0,10.9-2.2,10.9-14.5v-22.2H498.8z"/>
	<path class="st1" d="M547.2,158h-17.8v54.3h-12.6V158H499v-11.7h48.3V158z"/>
	<path class="st1" d="M590.6,192.3h-34.4c1.4,7.2,7.3,9.8,12.4,9.8c6.4,0,9.1-4,9.1-4h11.9c-3.6,9.4-12.2,14.6-21.4,14.6
		c-12.7,0-23.9-9.7-23.9-24.4c0-14.6,11-23.7,23.5-23.7C579.9,164.7,592.1,173.1,590.6,192.3z M557,182.8h21.2
		c-1.4-5.6-5.3-7.8-10-7.8C563,175,558.8,177.9,557,182.8z"/>
	<path class="st1" d="M622,212.8c-13.1,0-23.9-10.1-23.9-24c0-14.1,11.1-24.1,24.3-24.1c10.8,0,19.9,6.7,22.5,17.7h-12.8
		c-2-3.9-5.5-6.3-10-6.3c-6.6,0-11.9,5.3-11.9,12.6c0,7.4,5.3,12.6,11.9,12.6c4.2,0,7.5-2.2,9.6-5.7h12.9
		C641.7,206.9,632,212.8,622,212.8z"/>
	<path class="st1" d="M698.7,186.7v25.6h-12.6v-22.7c0-4.6,0.8-14-7.7-14c-4.1,0-12.2,2.2-12.2,14.5v22.2h-12.6v-67h12v24.7h1.6
		c2.3-2.4,6.6-5.4,13.6-5.4C692.8,164.7,698.7,173.7,698.7,186.7z"/>
	<path class="st1" d="M434.1,201.2c4.8-5.8,7.7-13.3,7.7-21.9c0-19.3-15-33.5-32.2-33.5s-32.2,14.1-32.2,33.5
		c0,19.3,14.9,33.4,32.3,33.5v0h38.5v-11.6H434.1z M390.4,179.3c0-12.3,7.8-21,19.1-21c11.4,0,19.2,8.8,19.2,21s-7.7,21-19.1,21
		S390.4,191.6,390.4,179.3z"/>
</g>
</svg>
